<svg xmlns="http://www.w3.org/2000/svg" xmlns:xlink="http://www.w3.org/1999/xlink" width="142.187" height="35.351" viewBox="0 0 142.187 35.351">
    <defs>
        <clipPath id="clip-path">
            <rect id="사각형_15" data-name="사각형 15" width="95.297" height="35.351" fill="#fff6e1"/>
        </clipPath>
        <clipPath id="clip-path-2">
            <rect id="사각형_25" data-name="사각형 25" width="38.334" height="35.351" fill="#fff6e1"/>
        </clipPath>
    </defs>
    <g id="그룹_13" data-name="그룹 13" transform="translate(-523 -62)">
        <g id="그룹_2" data-name="그룹 2" transform="translate(569.89 62)">
            <g id="그룹_1" data-name="그룹 1" transform="translate(0 0)" clip-path="url(#clip-path)">
                <path id="패스_1" data-name="패스 1" d="M38.735,1.031V9.905c0,2.778-1.555,6.053-6.394,6.053s-6.395-3.275-6.395-6.053V1.031a.287.287,0,0,1,.287-.287h3.573a.287.287,0,0,1,.287.287V9.985a2.255,2.255,0,1,0,4.5,0V1.031a.287.287,0,0,1,.287-.287h3.571a.285.285,0,0,1,.287.287" transform="translate(-13.532 -0.388)" fill="#fff6e1"/>
                <path id="패스_2" data-name="패스 2" d="M54.521,1.032A.288.288,0,0,1,54.81.743h7.018c2.421,0,4.384,1.7,4.384,5.293S64.25,11.33,61.829,11.33H58.671v3.906a.289.289,0,0,1-.289.289H54.81a.289.289,0,0,1-.289-.289Zm7.5,5A1.625,1.625,0,0,0,60.5,4.2H58.814a.145.145,0,0,0-.144.144V7.731a.145.145,0,0,0,.144.144H60.5a1.625,1.625,0,0,0,1.523-1.839" transform="translate(-28.434 -0.387)" fill="#fff6e1"/>
                <path id="패스_3" data-name="패스 3" d="M80.783,15.236V1.033a.288.288,0,0,1,.289-.289h8.686a.289.289,0,0,1,.289.289V3.982a.289.289,0,0,1-.289.289H84.931v2.1H89.1a.288.288,0,0,1,.289.289V9.61A.289.289,0,0,1,89.1,9.9H84.931V12h4.826a.289.289,0,0,1,.289.289v2.947a.289.289,0,0,1-.289.289H81.072a.288.288,0,0,1-.289-.289" transform="translate(-42.131 -0.388)" fill="#fff6e1"/>
                <path id="패스_4" data-name="패스 4" d="M113.737,15.448a.29.29,0,0,1-.29.294h-3.834a.29.29,0,0,1-.288-.283c-.087-2.418-1.3-3.667-3.2-3.789v3.785a.288.288,0,0,1-.289.289H102.26a.288.288,0,0,1-.289-.289V1.032a.288.288,0,0,1,.289-.289h7.018c2.421,0,4.382,1.7,4.384,5.293a5.38,5.38,0,0,1-1.736,4.411,7.716,7.716,0,0,1,1.811,5M106.119,7.74a.139.139,0,0,0,.145.134h1.687a1.552,1.552,0,0,0,1.523-1.708,1.551,1.551,0,0,0-1.523-1.708h-1.687a.14.14,0,0,0-.145.134Z" transform="translate(-53.181 -0.387)" fill="#fff6e1"/>
                <path id="패스_5" data-name="패스 5" d="M4.87,4.127a1.5,1.5,0,0,0,.213.945,2.186,2.186,0,0,0,.925.6l2.419.935A6.047,6.047,0,0,1,11,8.3a4.554,4.554,0,0,1,.722,2.8,5.627,5.627,0,0,1-.265,1.911,3.121,3.121,0,0,1-1.077,1.423,7.437,7.437,0,0,1-4.391,1.057,7.148,7.148,0,0,1-4.371-1.139A4.117,4.117,0,0,1,0,11.184a.29.29,0,0,1,.288-.308H4.153a.286.286,0,0,1,.286.253,1.432,1.432,0,0,0,.471.988,1.507,1.507,0,0,0,1.078.305,1.312,1.312,0,0,0,.965-.315,1.225,1.225,0,0,0,.316-.9,1.769,1.769,0,0,0-.326-1.148,2.816,2.816,0,0,0-1.179-.722L3.345,8.356a5.314,5.314,0,0,1-2.2-1.362A3.9,3.9,0,0,1,.418,4.432,3.758,3.758,0,0,1,2.044,1,7.217,7.217,0,0,1,5.988,0,6.361,6.361,0,0,1,9.972,1.2a3.1,3.1,0,0,1,.945,1.423,5.7,5.7,0,0,1,.367,1.684A.29.29,0,0,1,11,4.615H7.488A.287.287,0,0,1,7.2,4.346a1.6,1.6,0,0,0-.257-.88,1.157,1.157,0,0,0-.955-.335,1.164,1.164,0,0,0-.773.295.9.9,0,0,0-.345.7" transform="translate(0 0)" fill="#fff6e1"/>
                <path id="패스_6" data-name="패스 6" d="M10.751,42.087H14.5a.289.289,0,0,1,.289.289v14.2a.288.288,0,0,1-.289.289H10.925a.288.288,0,0,1-.289-.289V49.4L9.54,54.03a.288.288,0,0,1-.28.222H5.527a.288.288,0,0,1-.28-.222L4.15,49.4v7.183a.288.288,0,0,1-.289.289H.289A.288.288,0,0,1,0,56.579v-14.2a.288.288,0,0,1,.289-.289H4.033a.284.284,0,0,1,.2.079c1.354,1.348,3.16,6.312,3.16,6.312s1.806-4.964,3.16-6.312a.275.275,0,0,1,.2-.079" transform="translate(0 -21.95)" fill="#fff6e1"/>
                <path id="패스_7" data-name="패스 7" d="M76.767,42.087h3.574a.289.289,0,0,1,.289.289v14.2a.288.288,0,0,1-.289.289H76.648a.285.285,0,0,1-.251-.145l-4.635-8.189v8.047a.289.289,0,0,1-.289.289H67.9a.289.289,0,0,1-.289-.289v-14.2a.288.288,0,0,1,.289-.289h3.7a.285.285,0,0,1,.244.136l4.634,7.463v-7.31a.287.287,0,0,1,.287-.289" transform="translate(-35.262 -21.95)" fill="#fff6e1"/>
                <path id="패스_8" data-name="패스 8" d="M133.152,45.319a.288.288,0,0,1-.289.289H129.62v10.97a.289.289,0,0,1-.288.289h-3.573a.289.289,0,0,1-.289-.289V45.607h-3.244a.289.289,0,0,1-.289-.289V42.375a.288.288,0,0,1,.289-.289h10.638a.289.289,0,0,1,.287.289Z" transform="translate(-63.594 -21.949)" fill="#fff6e1"/>
                <path id="패스_9" data-name="패스 9" d="M151.18,42.275l5.233,14.114a.278.278,0,0,1,.018.1v.092a.289.289,0,0,1-.289.287h-3.629a.289.289,0,0,1-.27-.188l-.785-2.123h-4.722l-.8,2.125a.288.288,0,0,1-.27.188h-3.63a.288.288,0,0,1-.289-.289v-.092a.3.3,0,0,1,.017-.1L147,42.275a.288.288,0,0,1,.27-.188h3.64a.288.288,0,0,1,.27.188m-1.068,8.654L149.09,48.2l-1.012,2.73Z" transform="translate(-73.928 -21.95)" fill="#fff6e1"/>
                <path id="패스_10" data-name="패스 10" d="M186.347,56.791a.29.29,0,0,1-.29.294h-3.834a.29.29,0,0,1-.288-.283c-.087-2.418-1.3-3.667-3.2-3.789V56.8a.288.288,0,0,1-.289.289H174.87a.288.288,0,0,1-.289-.289V42.375a.288.288,0,0,1,.289-.289h7.018c2.421,0,4.382,1.7,4.384,5.293a5.382,5.382,0,0,1-1.736,4.411,7.713,7.713,0,0,1,1.811,5m-7.617-7.708a.139.139,0,0,0,.145.134h1.687a1.719,1.719,0,0,0,0-3.415h-1.687a.14.14,0,0,0-.145.134Z" transform="translate(-91.049 -21.949)" fill="#fff6e1"/>
                <path id="패스_11" data-name="패스 11" d="M101.3,45.47a1.494,1.494,0,0,0,.213.945,2.184,2.184,0,0,0,.925.6l2.42.935a6.05,6.05,0,0,1,2.571,1.7,4.558,4.558,0,0,1,.722,2.8,5.628,5.628,0,0,1-.265,1.911,3.121,3.121,0,0,1-1.077,1.423,7.438,7.438,0,0,1-4.391,1.057A7.149,7.149,0,0,1,98.047,55.7a4.117,4.117,0,0,1-1.616-3.168.29.29,0,0,1,.288-.308h3.864a.287.287,0,0,1,.286.253,1.43,1.43,0,0,0,.471.988,1.506,1.506,0,0,0,1.077.305,1.313,1.313,0,0,0,.966-.315,1.224,1.224,0,0,0,.315-.9,1.771,1.771,0,0,0-.325-1.148,2.823,2.823,0,0,0-1.179-.722L99.775,49.7a5.314,5.314,0,0,1-2.2-1.362,3.9,3.9,0,0,1-.732-2.562,3.759,3.759,0,0,1,1.626-3.435,7.217,7.217,0,0,1,3.944-1,6.362,6.362,0,0,1,3.985,1.2,3.1,3.1,0,0,1,.945,1.423,5.711,5.711,0,0,1,.367,1.684.29.29,0,0,1-.289.308h-3.509a.287.287,0,0,1-.288-.268,1.594,1.594,0,0,0-.256-.88,1.339,1.339,0,0,0-1.728-.041.894.894,0,0,0-.345.7" transform="translate(-50.292 -21.562)" fill="#fff6e1"/>
                <path id="패스_12" data-name="패스 12" d="M40.726,41.625a7.718,7.718,0,1,0,7.828,7.718,7.774,7.774,0,0,0-7.828-7.718m4.8,9.407a1.691,1.691,0,0,1-.927.419,6.866,6.866,0,0,1-1.586.143c-.172,0-.345,0-.517,0-.213,0-.208,0-.286.19a16.483,16.483,0,0,1-.665,1.551c-.128.242-.27.476-.409.712a1.152,1.152,0,0,1-.306.321.471.471,0,0,1-.608-.014,1.463,1.463,0,0,1-.3-.327,9.925,9.925,0,0,1-.868-1.764c-.067-.176-.147-.346-.2-.524a.2.2,0,0,0-.227-.148c-.305.006-.611.013-.916.006a6.917,6.917,0,0,1-1.485-.2,1.409,1.409,0,0,1-.676-.359.477.477,0,0,1-.128-.556,1.142,1.142,0,0,1,.225-.379,12.953,12.953,0,0,1,1.041-.911,7.448,7.448,0,0,1,.923-.684.2.2,0,0,0,.088-.257c-.08-.278-.156-.557-.235-.835a9.291,9.291,0,0,1-.322-1.774c-.044-.536.284-.768.759-.663a4.625,4.625,0,0,1,1.04.427,10.184,10.184,0,0,1,1.4.811.3.3,0,0,0,.4,0,11.438,11.438,0,0,1,2.017-1.1,1.973,1.973,0,0,1,.512-.165.537.537,0,0,1,.67.561,5.21,5.21,0,0,1-.116.977,13.39,13.39,0,0,1-.411,1.66c-.075.256-.076.255.138.4a15.852,15.852,0,0,1,1.4,1.1,5.606,5.606,0,0,1,.5.46,1.086,1.086,0,0,1,.218.384.478.478,0,0,1-.136.534" transform="translate(-17.157 -21.709)" fill="#fff6e1"/>
            </g>
        </g>
        <g id="그룹_7" data-name="그룹 7" transform="translate(523 62)">
            <g id="그룹_6" data-name="그룹 6" clip-path="url(#clip-path-2)">
                <path id="패스_14" data-name="패스 14" d="M28.157,24.659c-.612,0-1.225.012-1.837,0-.662-.017-.663,0-.9.6-.448,1.152-.9,2.3-1.4,3.435a29.344,29.344,0,0,1-1.486,3.1,11.614,11.614,0,0,1-2.012,2.987,1.918,1.918,0,0,1-2.726,0A8.581,8.581,0,0,1,16.309,32.7c-.4-.675-.806-1.35-1.14-2.057-.5-1.049-.947-2.121-1.391-3.195-.344-.833-.635-1.688-.982-2.519a.569.569,0,0,0-.436-.25c-.771-.017-1.544.007-2.316.015a27.6,27.6,0,0,1-6.8-.738,5.53,5.53,0,0,1-2.584-1.3,1.875,1.875,0,0,1-.5-2.22A4.678,4.678,0,0,1,1.7,18.461q3.057-2.528,6.188-4.967c.882-.689.9-.643.611-1.723-.471-1.755-.988-3.5-1.36-5.277a28.88,28.88,0,0,1-.576-4.315C6.466.451,7.724-.284,9.25.1a18.16,18.16,0,0,1,3.21,1.244A42.519,42.519,0,0,1,18.49,4.758c.635.434.709.43,1.346,0A43.389,43.389,0,0,1,27.145.779a6.555,6.555,0,0,1,2.617-.77,1.8,1.8,0,0,1,1.985,1.863,22.159,22.159,0,0,1-.3,3.118A44.949,44.949,0,0,1,29.7,12.183c-.2.634-.12.724.446,1.118.942.656,1.868,1.338,2.765,2.055q1.822,1.456,3.585,2.985a4.845,4.845,0,0,1,1.768,2.428,1.763,1.763,0,0,1-.5,1.795,5.373,5.373,0,0,1-2.677,1.393,26.088,26.088,0,0,1-6.932.7m-9.008-6.15a2.575,2.575,0,0,0,3.212.5c.342-.171.534-.512.374-.724-.214-.285-.476-.239-.77-.071a1.636,1.636,0,0,1-2.37-.685.524.524,0,0,0-.413-.247.591.591,0,0,0-.45.258,1.642,1.642,0,0,1-2.377.67c-.294-.169-.591-.222-.757.089s.05.546.34.7a2.533,2.533,0,0,0,3.211-.483M15.2,13.8a1.6,1.6,0,0,0-1.536,1.668,1.232,1.232,0,0,0,1.225,1.169,1.793,1.793,0,0,0,1.456-1.782A1.2,1.2,0,0,0,15.2,13.8m7.79.005a1.189,1.189,0,0,0-1.18,1.058,1.791,1.791,0,0,0,1.466,1.774A1.238,1.238,0,0,0,24.487,15.5a1.594,1.594,0,0,0-1.5-1.7" transform="translate(0 0)" fill="#fff6e1"/>
            </g>
        </g>
    </g>
</svg>
