<svg id="그룹_24" data-name="그룹 24" xmlns="http://www.w3.org/2000/svg" xmlns:xlink="http://www.w3.org/1999/xlink" width="293.464" height="270.632" viewBox="0 0 293.464 270.632">
    <defs>
        <clipPath id="clip-path">
            <rect id="사각형_25" data-name="사각형 25" width="293.464" height="270.632" fill="#ff617c"/>
        </clipPath>
    </defs>
    <g id="그룹_6" data-name="그룹 6" clip-path="url(#clip-path)">
        <path id="패스_14" data-name="패스 14" d="M215.553,188.782c-4.686,0-9.376.095-14.06-.025-5.07-.132-5.077-.022-6.87,4.6-3.426,8.82-6.9,17.631-10.691,26.3-3.516,8.042-6.952,16.2-11.374,23.748-4.628,7.9-8.312,16.441-15.4,22.865-6.389,5.788-14.531,5.845-20.87.022-5.007-4.6-8.1-10.309-11.434-15.945-3.057-5.164-6.167-10.334-8.728-15.748-3.8-8.032-7.252-16.239-10.648-24.456-2.633-6.376-4.858-12.92-7.519-19.284a4.355,4.355,0,0,0-3.337-1.915c-5.905-.127-11.818.05-17.728.115A211.308,211.308,0,0,1,24.835,183.4c-7.356-1.771-14.154-4.638-19.783-9.935-5.2-4.9-6.232-10.287-3.8-17,2.322-6.4,6.82-11.065,11.743-15.139q23.4-19.354,47.37-38.027c6.753-5.277,6.9-4.923,4.681-13.187-3.606-13.434-7.563-26.8-10.411-40.4a221.087,221.087,0,0,1-4.409-33.032C49.5,3.46,59.133-2.171,70.814.754c8.461,2.117,16.616,5.813,24.57,9.523a325.506,325.506,0,0,1,46.168,26.149c4.863,3.324,5.431,3.289,10.307.025A332.169,332.169,0,0,1,207.808,5.966c6.466-2.726,12.743-5.98,20.037-5.9,9.075.1,15.182,5.222,15.194,14.259.01,7.96-1.14,15.957-2.262,23.872-2.661,18.78-7.7,37.012-13.389,55.071-1.529,4.853-.915,5.541,3.411,8.556,7.209,5.025,14.3,10.247,21.164,15.733q13.948,11.147,27.446,22.855c5.9,5.1,11.491,10.511,13.533,18.591,1.382,5.466-.02,9.88-3.83,13.738-5.681,5.753-12.775,8.823-20.493,10.661a199.717,199.717,0,0,1-53.066,5.376M146.595,141.7c8.326,7.267,15.513,8.349,24.588,3.813,2.616-1.309,4.085-3.918,2.86-5.546-1.641-2.182-3.641-1.828-5.893-.546-6.85,3.905-15.3,1.613-18.144-5.247a4.013,4.013,0,0,0-3.16-1.893c-1.207.052-3.015.96-3.444,1.972-2.8,6.606-11.147,9.174-18.2,5.13-2.254-1.294-4.526-1.7-5.8.678s.387,4.177,2.6,5.339c8.955,4.7,17.458,3.476,24.58-3.7m-30.236-36.079c-6.529-.14-12.272,6.327-11.758,12.768.406,5.092,4.661,9.247,9.376,8.95,5.8-.367,11.513-7.356,11.147-13.646-.247-4.2-4.693-8.294-8.765-8.072m59.637.04c-4.284-.309-8.835,3.77-9.035,8.1-.292,6.346,5.439,13.284,11.219,13.581,4.616.237,8.7-3.763,9.282-8.7.738-6.237-5.184-13.324-11.466-12.985" transform="translate(0 -0.001)" fill="#ff617c"/>
    </g>
</svg>
