<?xml version="1.0" encoding="utf-8"?>
<!-- Generator: Adobe Illustrator 27.9.0, SVG Export Plug-In . SVG Version: 6.00 Build 0)  -->
<svg version="1.1" id="Layer_1" xmlns="http://www.w3.org/2000/svg" xmlns:xlink="http://www.w3.org/1999/xlink" x="0px" y="0px"
	 viewBox="0 0 198.9 183.4" style="enable-background:new 0 0 198.9 183.4;" xml:space="preserve">
<style type="text/css">
	.st0{clip-path:url(#SVGID_00000042005525586030487660000001270276567620766122_);}
	.st1{fill:#FFF6E1;}
</style>
<g>
	<defs>
		<rect id="SVGID_1_" width="198.9" height="183.4"/>
	</defs>
	<clipPath id="SVGID_00000181777704136309602550000009924342877209065357_">
		<use xlink:href="#SVGID_1_"  style="overflow:visible;"/>
	</clipPath>
	<g style="clip-path:url(#SVGID_00000181777704136309602550000009924342877209065357_);">
		<path class="st1" d="M146.1,127.9c-3.2,0-6.4,0.1-9.5,0c-3.4-0.1-3.4,0-4.6,3.1c-2.3,6-4.7,11.9-7.2,17.8
			c-2.2,5.5-4.8,10.9-7.7,16.1c-3.1,5.4-5.6,11.1-10.4,15.5c-4.3,3.9-9.8,4-14.1,0c-3.4-3.1-5.5-7-7.8-10.8c-2.1-3.5-4.2-7-5.9-10.7
			c-2.6-5.4-4.9-11-7.2-16.6c-1.8-4.3-3.3-8.8-5.1-13.1c-0.5-0.8-1.3-1.2-2.3-1.3c-4-0.1-8,0-12,0.1c-11.9,0.2-23.7-1.1-35.3-3.8
			c-5-1.2-9.6-3.1-13.4-6.7c-3.5-3.3-4.2-7-2.6-11.5c1.6-4.3,4.6-7.5,8-10.3C19.4,87,30.1,78.4,40.9,70c4.6-3.6,4.7-3.3,3.2-8.9
			C41.7,51.9,39,42.9,37,33.7c-1.6-7.4-2.6-14.9-3-22.4c-0.5-9,6-12.8,14-10.8c5.7,1.4,11.3,3.9,16.6,6.4C75.5,12,86,17.9,95.9,24.7
			c3.3,2.2,3.7,2.2,7,0c11.9-8.1,24.6-15,37.9-20.7c4.4-1.8,8.6-4,13.6-4c6.1,0.1,10.3,3.5,10.3,9.7c-0.1,5.4-0.6,10.8-1.5,16.2
			c-1.8,12.7-5.2,25.1-9.1,37.3c-1,3.3-0.6,3.8,2.3,5.8c4.9,3.4,9.7,6.9,14.3,10.7c6.3,5,12.5,10.2,18.6,15.5
			c4,3.5,7.8,7.1,9.2,12.6c1,3.3,0,6.9-2.6,9.3c-3.9,3.9-8.7,6-13.9,7.2C170.2,127.1,158.2,128.3,146.1,127.9 M99.3,96
			c5.6,4.9,10.5,5.7,16.7,2.6c1.8-0.9,2.8-2.7,1.9-3.8c-1.1-1.5-2.5-1.2-4-0.4c-4.6,2.7-10.4,1.1-12.3-3.6c-0.5-0.8-1.3-1.2-2.1-1.3
			c-0.9,0.1-1.8,0.6-2.3,1.3c-1.9,4.5-7.6,6.2-12.3,3.5c-1.5-0.9-3.1-1.2-3.9,0.5s0.3,2.8,1.8,3.6C88.8,101.7,94.5,100.9,99.3,96
			 M78.3,71.6c-4.1-0.1-7.8,4.3-7.4,8.7c0.3,3.4,2.9,6.3,5.9,6.1c3.7-0.2,7.3-5,7.1-9.2C83.7,74.2,80.9,71.4,78.3,71.6 M119.3,71.6
			c-3.1,0-5.8,2.4-6.1,5.5c-0.2,4.3,3.7,9,7.6,9.2c3.1,0.2,5.9-2.6,6.3-5.9C127.5,76.2,123.5,71.4,119.3,71.6"/>
	</g>
</g>
</svg>
